<svg width="60" height="61" viewBox="0 0 60 61" fill="none" xmlns="http://www.w3.org/2000/svg">
<g id="&#233;&#157;&#162;&#230;&#128;&#167;&#231;&#151;&#133;&#228;&#186;&#186;&#229;&#155;&#190;&#230;&#160;&#135; 1">
<g id="Group 103">
<path id="Vector" d="M44.5401 21.9761C44.5349 22.0173 44.5295 22.0584 44.5239 22.0995C44.5126 22.1875 44.5044 22.2758 44.4995 22.3643C46.8224 26.4091 46.8143 31.0874 43.3998 34.6936C43.3489 34.7457 43.2797 34.7759 43.2068 34.7777C43.134 34.7795 43.0634 34.7528 43.0099 34.7033L26.4426 18.0337C26.3927 17.9799 26.3656 17.9088 26.3671 17.8355C26.3686 17.7621 26.3986 17.6922 26.4507 17.6405C30.0325 14.2017 34.6897 14.1887 38.7052 16.5376L39.0837 16.4937L49.54 5.99193C50.2745 5.32818 51.2367 4.97341 52.2263 5.00156C53.2158 5.0297 54.1563 5.43858 54.8518 6.143C56.3008 7.60496 56.3593 9.95386 54.985 11.4873L44.5385 21.9761H44.5401ZM16.6588 13.5097C16.6588 11.6774 18.1338 10.1926 19.9563 10.1926C21.7757 10.1926 23.2523 11.6774 23.2523 13.5097C23.2538 13.9441 23.1696 14.3746 23.0047 14.7766C22.8398 15.1785 22.5973 15.544 22.2911 15.8522C21.9848 16.1604 21.6209 16.4052 21.22 16.5727C20.8191 16.7402 20.3892 16.8271 19.9547 16.8283C18.1354 16.8283 16.6572 15.342 16.6572 13.5097H16.6588ZM38.7004 46.5777C38.0715 46.9444 37.5499 47.4697 37.1876 48.1011C36.8253 48.7324 36.635 49.4478 36.6358 50.1758H36.6309C36.629 50.7202 36.7343 51.2597 36.941 51.7634C37.1477 52.2671 37.4516 52.7252 37.8354 53.1114C38.2192 53.4976 38.6753 53.8043 39.1777 54.0142C39.6801 54.224 40.2189 54.3328 40.7634 54.3343C41.3077 54.3326 41.8463 54.2236 42.3485 54.0137C42.8508 53.8038 43.3067 53.497 43.6903 53.1108C44.0739 52.7246 44.3777 52.2667 44.5842 51.7631C44.7908 51.2595 44.8962 50.7201 44.8942 50.1758C44.8942 48.6911 44.108 47.3201 42.8312 46.5777C42.2041 46.2128 41.4914 46.0205 40.7658 46.0205C40.0402 46.0205 39.3275 46.2128 38.7004 46.5777ZM45.8315 45.7834C45.8139 45.3761 45.9064 44.9717 46.0994 44.6126C46.2924 44.2535 46.5786 43.9531 46.928 43.7431C47.2758 43.5342 47.6739 43.4239 48.0797 43.4239C48.4855 43.4239 48.8836 43.5342 49.2314 43.7431C49.6533 43.9987 49.9804 44.3848 50.1631 44.8431C50.3457 45.3013 50.374 45.8066 50.2436 46.2823C50.1132 46.758 49.8312 47.1783 49.4404 47.4793C49.0496 47.7803 48.5713 47.9457 48.0781 47.9503C47.4965 47.9483 46.9382 47.7218 46.5196 47.318C46.1011 46.9143 45.8545 46.3645 45.8315 45.7834ZM40.0161 37.3219L23.5024 20.7091L23.5057 20.7058C23.4491 20.6424 23.3712 20.602 23.2868 20.5921C23.2024 20.5822 23.1173 20.6036 23.0476 20.6522C17.3118 24.6352 5.50237 27.1092 4.08427 27.3935C4.00305 27.4146 3.97868 27.4958 4.01929 27.5657L6.9952 33.1829C7.00897 33.208 7.03119 33.2276 7.05794 33.238C7.08468 33.2484 7.11424 33.249 7.1414 33.2397L15.1822 30.3726C15.1822 30.3726 9.46755 35.2459 8.46042 36.0629C8.41981 36.1003 8.41981 36.1279 8.44417 36.1702C9.4643 38.022 13.0039 41.9595 13.5237 42.5362C13.5611 42.5801 13.6179 42.5849 13.6666 42.5557L24.2756 36.1539C24.2756 36.1539 18.0347 44.3166 16.8359 45.7801C16.8034 45.8126 16.8082 45.8451 16.8359 45.8857C18.6552 48.3711 24.5599 52.3622 24.5599 52.3622L26.0625 50.2781C28.0781 47.4223 30.3008 44.7185 32.7128 42.1886C33.2294 41.6688 28.1807 52.3054 27.6544 53.4165C27.6424 53.4432 27.6408 53.4735 27.6498 53.5014C27.6588 53.5293 27.6778 53.5528 27.7031 53.5675L33.3073 56.9674C33.3241 56.9765 33.3427 56.9814 33.3617 56.9818C33.3807 56.9822 33.3996 56.9779 33.4166 56.9695C33.4336 56.9611 33.4484 56.9486 33.4596 56.9333C33.4709 56.918 33.4783 56.9001 33.4812 56.8813C34.6832 46.8263 39.1844 39.2143 40.0779 37.7783C40.1199 37.7066 40.1367 37.623 40.1259 37.5406C40.115 37.4582 40.0769 37.3818 40.0178 37.3235L40.0161 37.3219Z" fill="white"/>
</g>
</g>
</svg>
