<svg width="60" height="60" viewBox="0 0 60 60" fill="none" xmlns="http://www.w3.org/2000/svg">
<g id="&#231;&#188;&#180;&#232;&#180;&#185; 1">
<path id="Vector" d="M51.1236 15.5098C52.3724 16.7586 53.0136 18.3036 53.0474 20.1486V46.3986C53.0136 48.2436 52.3724 49.7886 51.1236 51.0373C49.8749 52.2861 48.3299 52.9273 46.4849 52.9611H13.6724C11.8274 52.9273 10.2786 52.2861 9.03361 51.0373C7.78486 49.7886 7.14361 48.2436 7.10986 46.3986V20.1486C7.14361 18.3036 7.78486 16.7586 9.03361 15.5098C10.2824 14.2611 11.8274 13.6198 13.6724 13.5861H46.4849C48.3299 13.6236 49.8749 14.2611 51.1236 15.5098ZM10.8261 9.86984C10.5336 9.58109 10.3911 9.17609 10.3911 8.66609C10.3911 8.15609 10.5374 7.75109 10.8261 7.46234C11.1149 7.17359 11.5199 7.02734 12.0299 7.02734H48.1236C48.6374 7.02734 49.0386 7.17359 49.3274 7.46234C49.6161 7.75484 49.7624 8.15609 49.7624 8.66609C49.7624 9.17609 49.6161 9.58109 49.3274 9.86984C49.0349 10.1623 48.6336 10.3048 48.1236 10.3048H12.0299C11.5161 10.3048 11.1149 10.1623 10.8261 9.86984ZM31.7174 35.2236V33.2736H36.6374C37.1511 33.2736 37.5524 33.1273 37.8411 32.8386C38.1299 32.5498 38.2761 32.1448 38.2761 31.6348C38.2761 31.1248 38.1299 30.7198 37.8411 30.4311C37.5486 30.1423 37.1474 29.9961 36.6374 29.9961H33.6636L36.9449 26.7148C37.2861 26.3736 37.4586 25.9873 37.4586 25.5598C37.4586 25.1323 37.2861 24.7573 36.9449 24.4311C36.6036 24.1048 36.2286 23.9436 35.8161 23.9436C35.4036 23.9436 35.0286 24.0973 34.6874 24.4048L30.0749 29.0173L25.4624 24.7648C25.1211 24.4236 24.7461 24.2511 24.3336 24.2511C23.9211 24.2511 23.5461 24.4236 23.2049 24.7648C22.8636 25.1061 22.6911 25.4811 22.6911 25.8936C22.6911 26.3061 22.8636 26.6811 23.2049 27.0223L26.4861 29.9961H23.5124C22.9986 29.9961 22.5974 30.1423 22.3086 30.4311C22.0161 30.7236 21.8736 31.1248 21.8736 31.6348C21.8736 32.1448 22.0199 32.5498 22.3086 32.8386C22.5974 33.1311 23.0024 33.2736 23.5124 33.2736H28.4324V35.2236H23.5161C23.0024 35.2573 22.6011 35.4223 22.3124 35.7111C22.0199 36.0036 21.8774 36.3936 21.8774 36.8886C21.8774 37.3836 22.0236 37.7773 22.3124 38.0661C22.6011 38.3586 23.0061 38.5011 23.5161 38.5011H28.4361V41.1673C28.4361 41.6473 28.5824 42.0298 28.8711 42.3223C29.1599 42.6148 29.5649 42.7573 30.0749 42.7573C30.5849 42.7573 30.9899 42.6111 31.2786 42.3223C31.5674 42.0336 31.7136 41.6473 31.7136 41.1673V38.5011H36.6336C37.1474 38.5011 37.5486 38.3548 37.8374 38.0661C38.1261 37.7773 38.2724 37.3836 38.2724 36.8886C38.2724 36.3936 38.1261 35.9998 37.8374 35.7111C37.5449 35.4223 37.1436 35.2573 36.6336 35.2236H31.7174Z" fill="white"/>
</g>
</svg>
