<svg width="62" height="61" viewBox="0 0 62 61" fill="none" xmlns="http://www.w3.org/2000/svg">
<g id="&#233;&#166;&#150;&#233;&#161;&#181; 1" clip-path="url(#clip0_149_11)">
<path id="Vector" d="M59.5306 29.48C60.3706 30.28 60.8106 31.16 60.8506 32.12C60.8906 33.08 60.5706 33.88 59.8906 34.52C59.1306 35.2 58.2506 35.52 57.2506 35.48C56.2506 35.44 55.4506 35.16 54.8506 34.64C54.6506 34.48 54.0406 33.92 53.0206 32.96C52.0006 32 50.7806 30.85 49.3606 29.51C47.9406 28.17 46.4206 26.73 44.8006 25.19C43.1806 23.65 41.6506 22.2 40.2106 20.84C38.7706 19.48 37.5306 18.3 36.4906 17.3C35.4506 16.3 34.7906 15.68 34.5106 15.44C33.2306 14.28 31.9706 13.72 30.7306 13.76C29.4906 13.8 28.2706 14.36 27.0706 15.44C26.6706 15.8 25.9206 16.49 24.8206 17.51C23.7206 18.53 22.4506 19.72 21.0106 21.08C19.5706 22.44 18.0506 23.86 16.4506 25.34C14.8506 26.82 13.3706 28.2 12.0106 29.48C10.6506 30.76 9.48065 31.85 8.50064 32.75C7.52064 33.65 6.93065 34.18 6.73065 34.34C6.13065 34.82 5.33065 35.08 4.33065 35.12C3.33065 35.16 2.47065 34.86 1.75065 34.22C0.950645 33.5 0.570645 32.63 0.610645 31.61C0.650645 30.59 0.990645 29.78 1.63065 29.18C1.87065 28.94 2.61065 28.24 3.85065 27.08C5.09065 25.92 6.57065 24.54 8.29065 22.94C10.0106 21.34 11.8606 19.62 13.8406 17.78C15.8206 15.94 17.6606 14.22 19.3606 12.62C21.0606 11.02 22.5206 9.65 23.7406 8.51C24.9606 7.37 25.6706 6.7 25.8706 6.5C27.3906 5.02 29.0306 4.27 30.7906 4.25C32.5506 4.23 34.0506 4.82 35.2906 6.02C35.5306 6.22 36.0306 6.69 36.7906 7.43C37.5506 8.17 38.4806 9.07 39.5806 10.13C40.6806 11.19 41.9106 12.38 43.2706 13.7C44.6306 15.02 46.0106 16.35 47.4106 17.69C48.8106 19.03 50.1806 20.36 51.5206 21.68C52.8606 23 54.0906 24.19 55.2106 25.25C56.3306 26.31 57.2706 27.22 58.0306 27.98L59.5306 29.48ZM27.0706 20.78C28.0706 19.86 29.2706 19.37 30.6706 19.31C32.0706 19.25 33.3306 19.74 34.4506 20.78C34.5706 20.9 34.9306 21.24 35.5306 21.8L37.8106 23.9C38.6906 24.74 39.6806 25.68 40.7806 26.72C41.8806 27.76 43.0106 28.8 44.1706 29.84C46.8506 32.32 49.8506 35.1 53.1706 38.18V49.58C53.1706 50.46 52.8406 51.24 52.1806 51.92C51.5206 52.6 50.6306 52.96 49.5106 53H38.1706V43.7C38.1706 42.38 37.5506 41.72 36.3106 41.72H24.8506C24.1706 41.72 23.7006 41.92 23.4406 42.32C23.1806 42.72 23.0506 43.18 23.0506 43.7C23.0506 43.94 23.0406 44.55 23.0206 45.53C23.0006 46.51 22.9906 47.56 22.9906 48.68V53H12.0106C10.8506 53 9.93065 52.74 9.25065 52.22C8.57065 51.7 8.23064 50.96 8.23064 50V38.06C11.5106 35.06 14.4906 32.34 17.1706 29.9C18.2906 28.86 19.4106 27.83 20.5306 26.81C21.6506 25.79 22.6706 24.86 23.5906 24.02C24.5106 23.18 25.2806 22.47 25.9006 21.89C26.5206 21.31 26.9106 20.94 27.0706 20.78Z" fill="white"/>
</g>
<defs>
<clipPath id="clip0_149_11">
<rect width="60.293" height="60" fill="white" transform="translate(0.853516 0.5)"/>
</clipPath>
</defs>
</svg>
