<svg width="60" height="60" viewBox="0 0 60 60" fill="none" xmlns="http://www.w3.org/2000/svg">
<g id="&#229;&#174;&#137;&#229;&#133;&#168; (2) 1">
<path id="Vector" d="M56.087 5.06087V35.6374C56.087 37.4713 55.6513 39.2948 54.7827 41.1078C53.9113 42.9261 52.774 44.6817 51.3653 46.3878C49.9566 48.0913 48.347 49.7061 46.5392 51.227C44.7287 52.7504 42.8948 54.107 41.0348 55.2965C39.1722 56.4887 37.3644 57.48 35.6087 58.2678C33.8531 59.0557 32.314 59.5957 30.9913 59.8904L30.3653 60L29.7913 59.8904C28.4348 59.5957 26.8618 59.0557 25.0696 58.2678C23.2774 57.48 21.4174 56.4887 19.487 55.2965C17.5566 54.107 15.6627 52.7504 13.8 51.227C11.94 49.7061 10.2783 48.0913 8.81743 46.3878C7.35656 44.6817 6.17482 42.9261 5.27222 41.1078C4.36439 39.2948 3.91309 37.4713 3.91309 35.6374V5.06087L6.05222 4.72957L30.0522 0L54.5218 4.72957L56.087 5.06087ZM30.06 4.42696L29.7705 4.36696L9.17222 8.05826V27.3496H30.06V4.42696ZM50.8279 27.3496H30.06V54.8087C31.3957 54.4852 32.8487 53.9922 34.4192 53.327C35.987 52.6617 37.5366 51.8765 39.0653 50.9687C40.5966 50.0609 42.0679 49.0539 43.4844 47.9452C44.9009 46.8365 46.1505 45.6443 47.2435 44.3739C48.334 43.1061 49.2027 41.7861 49.8522 40.4139C50.5044 39.0443 50.8279 37.6513 50.8279 36.24V27.3496Z" fill="white"/>
</g>
</svg>
