<svg width="48" height="41" viewBox="0 0 48 41" fill="none" xmlns="http://www.w3.org/2000/svg">
<g id="&#231;&#130;&#185;&#233;&#164;&#144;_&#233;&#157;&#162;&#230;&#128;&#167; 1" clip-path="url(#clip0_291_71)">
<path id="Vector" d="M44.5463 33.9566H3.43215C2.95774 33.9571 2.4884 33.8562 2.05381 33.6603C1.61922 33.4645 1.22884 33.178 0.90736 32.8188C0.585876 32.4597 0.340284 32.0359 0.186114 31.574C0.031944 31.1122 -0.0274494 30.6225 0.0116898 30.1358C0.438393 24.857 2.49798 19.8581 5.88807 15.8729C9.27816 11.8878 13.8202 9.12632 18.8473 7.99399C22.2359 7.23768 25.7426 7.23768 29.1312 7.99399C34.1593 9.12375 38.7025 11.8845 42.0927 15.8702C45.4829 19.856 47.5411 24.8563 47.9646 30.1358C48.0037 30.6223 47.9444 31.1118 47.7903 31.5735C47.6363 32.0352 47.3909 32.459 47.0696 32.818C46.7484 33.1771 46.3583 33.4637 45.9239 33.6597C45.4896 33.8557 45.0205 33.9568 44.5463 33.9566ZM46.3128 40.9999H1.84247C1.38775 40.9999 0.95166 40.814 0.630126 40.483C0.308592 40.152 0.127955 39.7032 0.127955 39.2351C0.127955 38.767 0.308592 38.3182 0.630126 37.9872C0.95166 37.6562 1.38775 37.4703 1.84247 37.4703H46.3128C46.7675 37.4703 47.2036 37.6562 47.5251 37.9872C47.8466 38.3182 48.0273 38.767 48.0273 39.2351C48.0273 39.7032 47.8466 40.152 47.5251 40.483C47.2036 40.814 46.7675 40.9999 46.3128 40.9999Z" fill="white"/>
<path id="Vector_2" d="M17.4976 11.9087V6.68204C17.4976 4.90985 18.1815 3.21025 19.3989 1.95712C20.6163 0.703998 22.2675 0 23.9891 0C25.7108 0 27.362 0.703998 28.5794 1.95712C29.7968 3.21025 30.4807 4.90985 30.4807 6.68204V11.9087L28.4019 11.4426C25.4936 10.7974 22.4852 10.7974 19.5769 11.4426L17.4976 11.9087ZM23.9891 7.42933C25.0131 7.42923 26.036 7.49592 27.0517 7.62897V6.68204C27.0517 5.84597 26.729 5.04414 26.1547 4.45295C25.5804 3.86176 24.8014 3.52963 23.9891 3.52963C23.1769 3.52963 22.3979 3.86176 21.8236 4.45295C21.2493 5.04414 20.9266 5.84597 20.9266 6.68204V7.62621C21.9424 7.4941 22.9653 7.42834 23.9891 7.42933Z" fill="white"/>
<path id="Vector_3" d="M28.4018 11.4428C25.4936 10.7976 22.4851 10.7976 19.5769 11.4428L18.8477 7.99371C22.2361 7.23777 25.7426 7.23777 29.131 7.99371L28.4018 11.4428Z" fill="white"/>
</g>
<defs>
<clipPath id="clip0_291_71">
<rect width="48" height="41" fill="white"/>
</clipPath>
</defs>
</svg>
