<svg width="60" height="61" viewBox="0 0 60 61" fill="none" xmlns="http://www.w3.org/2000/svg">
<g id="&#229;&#146;&#168;&#232;&#175;&#162;&#231;&#148;&#181;&#232;&#175;&#157; 1">
<path id="Vector" d="M46.1461 30.3522C45.3381 27.2521 42.6422 25.0952 39.4079 25.0952H36.7126V21.0522C36.7126 20.3784 36.0387 19.7046 35.3649 19.7046C34.6911 19.7046 34.0172 20.3784 34.0172 21.0522V25.0952H25.9313V21.0522C25.9313 20.3784 25.2575 19.7046 24.5836 19.7046C23.9098 19.7046 23.236 20.3784 23.236 21.0522V25.0952H20.5407C18.1143 25.0952 15.9581 26.713 15.2836 29.004L10.0243 45.0435C8.94615 48.5479 11.5067 52.0524 15.1459 52.0524H44.7991C48.4377 52.0524 50.9989 48.5479 49.9202 45.0435L46.1461 30.3522Z" fill="white"/>
<path id="Vector_2" d="M54.0985 18.2217C53.1551 12.9653 42.777 8.92114 29.9725 8.92114C17.168 8.92114 6.65454 13.0977 5.84595 18.2217C5.84595 18.4907 5.71118 18.7608 5.71118 19.0303V19.7042C5.71118 22.2653 8.40649 24.4215 12.4495 24.4215C16.4924 24.4215 19.1877 22.2653 19.1877 19.7042C19.1877 18.2217 24.5784 17.0088 29.969 17.0088C35.3596 17.0088 40.7502 18.2223 40.7502 19.7042C40.7502 22.2653 43.4456 24.4215 47.4885 24.4215C51.5315 24.4215 54.2268 22.2653 54.2268 19.7042V19.0303C54.2268 18.7608 54.2268 18.4907 54.0915 18.2217H54.0985Z" fill="white"/>
</g>
</svg>
