<svg width="60" height="61" viewBox="0 0 60 61" fill="none" xmlns="http://www.w3.org/2000/svg">
<g id="&#230;&#153;&#186;&#232;&#131;&#189;&#230;&#137;&#139;&#232;&#161;&#168; 1">
<path id="Vector" d="M22.8 22.1C21.48 22.1 20.4 23.18 20.4 24.5V38.9C20.4 40.22 21.48 41.3 22.8 41.3H37.2C38.52 41.3 39.6 40.22 39.6 38.9V24.5C39.6 23.18 38.52 22.1 37.2 22.1H22.8ZM22.8 17.3H37.2C41.16 17.3 44.4 20.54 44.4 24.5V38.9C44.4 42.86 41.16 46.1 37.2 46.1H22.8C18.84 46.1 15.6 42.86 15.6 38.9V24.5C15.6 20.54 18.84 17.3 22.8 17.3Z" fill="white"/>
<path id="Vector_2" d="M22.8 22.1C21.48 22.1 20.4 23.18 20.4 24.5V38.9C20.4 40.2199 21.48 41.2999 22.8 41.2999H37.2C38.52 41.2999 39.6 40.2199 39.6 38.9V24.5C39.6 23.18 38.52 22.1 37.2 22.1H22.8ZM22.8 46.0999H37.2V52.1C37.2 54.14 35.64 55.7 33.6 55.7H26.4C24.36 55.7 22.8 54.14 22.8 52.1V46.0999ZM26.4 7.69995H33.6C35.64 7.69995 37.2 9.25995 37.2 11.3V17.3H22.8V11.3C22.8 9.25995 24.36 7.69995 26.4 7.69995Z" fill="white"/>
<rect id="Rectangle 46" x="20" y="21.5" width="20" height="21" rx="3" fill="#824BE1"/>
</g>
</svg>
