<svg width="45" height="45" viewBox="0 0 45 45" fill="none" xmlns="http://www.w3.org/2000/svg">
<g id="&#229;&#140;&#187;&#231;&#148;&#159; 1">
<path id="Vector" d="M14.6093 34.4192C14.6096 34.5365 14.6447 34.6511 14.7102 34.7485C14.7757 34.846 14.8685 34.9218 14.9771 34.9664C15.0856 35.0111 15.2049 35.0226 15.32 34.9995C15.435 34.9764 15.5407 34.9197 15.6235 34.8366C15.7064 34.7535 15.7628 34.6477 15.7855 34.5325C15.8083 34.4174 15.7964 34.2981 15.7514 34.1897C15.7064 34.0813 15.6303 33.9887 15.5327 33.9235C15.4351 33.8584 15.3204 33.8236 15.203 33.8236C15.0454 33.824 14.8943 33.8869 14.783 33.9986C14.6717 34.1102 14.6092 34.2615 14.6093 34.4192ZM33.0287 6.69106C32.8687 6.56483 29.0376 3.60001 22.5205 3.60001C16.0268 3.60001 11.977 6.54031 11.8078 6.66541L11.2608 7.07041V18.1022C11.2608 21.0568 12.4346 23.8905 14.5238 25.9798C16.6131 28.0691 19.4468 29.2428 22.4015 29.2428C25.3561 29.2428 28.1898 28.0691 30.2791 25.9798C32.3684 23.8905 33.5421 21.0568 33.5421 18.1022V7.09628L33.0287 6.69106ZM20.0162 8.37226H21.175V7.21013C21.175 7.03344 21.2098 6.85847 21.2774 6.69523C21.345 6.53199 21.4441 6.38366 21.5691 6.25872C21.694 6.13378 21.8423 6.03467 22.0056 5.96705C22.1688 5.89943 22.3438 5.86463 22.5205 5.86463C22.6972 5.86463 22.8721 5.89943 23.0354 5.96705C23.1986 6.03467 23.347 6.13378 23.4719 6.25872C23.5968 6.38366 23.6959 6.53199 23.7636 6.69523C23.8312 6.85847 23.866 7.03344 23.866 7.21013V8.37226H25.025C25.3761 8.3824 25.7095 8.52901 25.9543 8.78098C26.1991 9.03294 26.336 9.3704 26.336 9.72169C26.336 10.073 26.1991 10.4104 25.9543 10.6624C25.7095 10.9144 25.3761 11.061 25.025 11.0711H23.866V12.2333C23.866 12.4099 23.8312 12.5849 23.7636 12.7482C23.6959 12.9114 23.5968 13.0597 23.4719 13.1847C23.347 13.3096 23.1986 13.4087 23.0354 13.4763C22.8721 13.544 22.6972 13.5788 22.5205 13.5788C22.3438 13.5788 22.1688 13.544 22.0056 13.4763C21.8423 13.4087 21.694 13.3096 21.5691 13.1847C21.4441 13.0597 21.345 12.9114 21.2774 12.7482C21.2098 12.5849 21.175 12.4099 21.175 12.2333V11.07H20.0162C19.668 11.0558 19.3388 10.9074 19.0975 10.656C18.8561 10.4046 18.7213 10.0696 18.7213 9.72113C18.7213 9.37263 18.8561 9.03763 19.0975 8.78622C19.3388 8.53481 19.668 8.38648 20.0162 8.37226ZM31.392 18.0266C31.3206 18.1885 31.2179 18.3347 31.0897 18.4568C30.9616 18.5788 30.8105 18.6743 30.6453 18.7378C30.4801 18.8013 30.304 18.8314 30.1271 18.8266C29.9502 18.8217 29.776 18.7819 29.6145 18.7094C27.3376 17.7285 24.8798 17.2379 22.4008 17.2694C19.9237 17.2377 17.4677 17.7271 15.192 18.7061C14.8651 18.8513 14.4939 18.8607 14.16 18.7322C13.8262 18.6037 13.557 18.3479 13.4118 18.0209C13.2666 17.694 13.2572 17.3228 13.3857 16.9889C13.5142 16.6551 13.77 16.3859 14.0969 16.2407C16.7173 15.1083 19.5464 14.5393 22.4008 14.5706C25.2577 14.5395 28.0892 15.11 30.7112 16.245C31.0374 16.3913 31.2924 16.661 31.42 16.995C31.5477 17.329 31.5376 17.7 31.392 18.0266ZM32.5755 27.4592C31.8615 28.2318 31.0655 28.9243 30.2015 29.5245C30.3709 30.1413 30.469 30.7754 30.494 31.4145C31.0736 31.6747 31.5657 32.0968 31.9111 32.6301C32.2565 33.1633 32.4405 33.785 32.441 34.4203V36.3418C32.441 36.6986 32.2992 37.0409 32.0469 37.2932C31.7945 37.5455 31.4523 37.6873 31.0955 37.6873C30.7386 37.6873 30.3964 37.5455 30.1441 37.2932C29.8917 37.0409 29.75 36.6986 29.75 36.3418V34.4203C29.75 34.2628 29.6874 34.1118 29.576 34.0004C29.4647 33.8891 29.3137 33.8265 29.1562 33.8265C28.9987 33.8265 28.8477 33.8891 28.7363 34.0004C28.625 34.1118 28.5624 34.2628 28.5624 34.4203V36.3418C28.5647 36.52 28.5316 36.6968 28.465 36.8621C28.3984 37.0274 28.2997 37.1778 28.1745 37.3046C28.0493 37.4314 27.9002 37.5321 27.7358 37.6008C27.5714 37.6695 27.395 37.7049 27.2168 37.7049C27.0386 37.7049 26.8622 37.6695 26.6978 37.6008C26.5334 37.5321 26.3843 37.4314 26.2591 37.3046C26.1339 37.1778 26.0352 37.0274 25.9686 36.8621C25.902 36.6968 25.8689 36.52 25.8712 36.3418V34.4203C25.8717 33.7892 26.0533 33.1716 26.3945 32.6407C26.7356 32.1099 27.222 31.6881 27.7958 31.4255C27.7857 31.2455 27.7657 31.0655 27.7389 30.8894C25.9826 31.6439 24.0868 32.0191 22.1755 31.9903C20.2642 31.9615 18.3805 31.5295 16.6478 30.7224C16.6032 30.9538 16.5731 31.1879 16.5578 31.4231C17.2424 31.7334 17.7999 32.2691 18.1373 32.9408C18.4746 33.6126 18.5714 34.3797 18.4114 35.1141C18.2515 35.8486 17.8445 36.506 17.2583 36.9766C16.6722 37.4472 15.9424 37.7026 15.1907 37.7001C14.439 37.6976 13.7109 37.4373 13.128 36.9628C12.545 36.4883 12.1424 35.8282 11.9873 35.0927C11.8323 34.3571 11.9342 33.5907 12.276 32.9212C12.6178 32.2518 13.1789 31.7198 13.8656 31.4141C13.8961 30.694 14.0199 29.981 14.2337 29.2928C13.5208 28.7683 12.8573 28.1798 12.2515 27.5346C10.0859 28.4596 8.2395 30.0001 6.94152 31.965C5.64353 33.9299 4.95105 36.2326 4.95001 38.5875C4.95001 39.3321 5.24531 40.0464 5.77115 40.5736C6.29699 41.1009 7.01045 41.398 7.75509 41.4H37.2449C37.9896 41.398 38.703 41.1009 39.2289 40.5736C39.7547 40.0464 40.05 39.3321 40.05 38.5875C40.0493 36.2002 39.3381 33.8671 38.007 31.8853C36.6759 29.9035 34.7852 28.3627 32.5755 27.459V27.4592Z" fill="white"/>
</g>
</svg>
