<svg width="45" height="39" viewBox="0 0 45 39" fill="none" xmlns="http://www.w3.org/2000/svg">
<path fill-rule="evenodd" clip-rule="evenodd" d="M35.3547 21.9802C30.1995 22.2913 11.7563 22.558 11.7563 22.558L9.44531 3.69253H40.6655C40.6655 3.69253 44.7541 3.02591 43.9097 7.64783C43.3098 10.781 41.1766 18.9138 41.1766 18.9138C41.1766 18.9138 40.51 21.6691 35.3547 21.9802ZM20.8301 19.8959C21.8891 20.8457 23.2328 21.2764 24.5492 21.2048C25.8655 21.1332 27.1546 20.5593 28.1044 19.5002L33.1671 13.8546L33.2068 13.8099C34.0727 12.822 34.4936 11.5936 34.4833 10.3727C34.4727 9.12203 34.0094 7.87909 33.1058 6.90742C32.9118 6.66026 32.6761 6.44899 32.4093 6.28318C31.3476 5.49033 30.0604 5.16393 28.8133 5.29087C27.5789 5.41662 26.3838 5.98658 25.4855 6.98832L25.122 7.3936L24.9705 7.56256L24.0011 8.64362L23.9306 8.72208L22.5122 10.3038L20.9609 12.0337L20.838 12.1708L20.4344 12.6209L20.3961 12.6639C19.473 13.7163 19.055 15.0416 19.1256 16.3403C19.1972 17.6568 19.771 18.9461 20.8301 19.8959ZM31.4752 13.2845L31.4566 13.2855C31.4566 13.2856 31.4565 13.2856 31.4565 13.2856L31.479 13.2843C31.4778 13.2844 31.4765 13.2844 31.4752 13.2845ZM31.4752 13.2845L31.479 13.2843C31.616 13.2736 31.7521 13.21 31.8575 13.092C31.8706 13.0779 31.8841 13.0631 31.8975 13.0482C32.5738 12.294 32.8803 11.3373 32.8293 10.3999C32.7783 9.46258 32.3698 8.54472 31.6157 7.86837C31.5266 7.78835 31.4336 7.71269 31.3371 7.64166C31.3124 7.60437 31.2825 7.56951 31.2476 7.53822C31.1953 7.49116 31.1342 7.45491 31.0678 7.43155C31.0014 7.40819 30.9311 7.39817 30.8609 7.40208C30.7906 7.40582 30.7217 7.4234 30.6583 7.45383C30.5948 7.48425 30.538 7.52691 30.4911 7.57937C30.3987 7.68208 30.3497 7.81663 30.3545 7.95472C30.3588 8.08475 30.4104 8.21337 30.5129 8.36893C30.6527 8.45358 30.7841 8.55111 30.9057 8.66026C31.4353 9.13518 31.7249 9.77801 31.7661 10.436C31.8074 11.0952 31.5996 11.7695 31.1116 12.3312C31.088 12.3499 31.0656 12.3709 31.0448 12.3941C30.9977 12.4464 30.9615 12.5076 30.9381 12.5739C30.9148 12.6403 30.9048 12.7107 30.9087 12.7809C30.9124 12.8512 30.93 12.92 30.9604 12.9835C30.9908 13.0469 31.0335 13.1038 31.0859 13.1507C31.1389 13.1985 31.2011 13.235 31.2687 13.258C31.3292 13.2786 31.3928 13.2879 31.4565 13.2856L31.4557 13.2856L31.4566 13.2855C31.4628 13.2853 31.469 13.285 31.4752 13.2845ZM24.5692 20.2977L24.5188 20.3009L24.4685 20.3035C23.3943 20.3531 22.301 19.9973 21.4373 19.2227C20.564 18.4396 20.091 17.3765 20.032 16.2911C19.9739 15.2223 20.3171 14.1317 21.0753 13.2649L21.111 13.2244L22.3928 11.7951C23.8614 11.9185 25.3031 12.5036 26.4845 13.5633C27.6631 14.6203 28.4003 15.9861 28.6835 17.429L28.6955 17.4908L27.4347 18.8967L27.3877 18.9484C26.6254 19.7711 25.6101 20.2251 24.5692 20.2977Z" fill="white"/>
<path d="M12.4867 35.8772C12.4867 37.4971 13.7917 38.802 15.4116 38.802C17.0315 38.802 18.3364 37.4971 18.3364 35.8772C18.3364 34.2573 17.0315 32.9523 15.4116 32.9523C13.7917 32.9523 12.4867 34.2573 12.4867 35.8772ZM35.5478 35.8772C35.5478 37.4971 36.8528 38.802 38.4727 38.802C40.0926 38.802 41.3975 37.4971 41.3975 35.8772C41.3975 34.2573 40.0926 32.9523 38.4727 32.9523C36.8528 32.9523 35.5478 34.2573 35.5478 35.8772ZM23.5111 30.77H15.3216C12.4417 30.4325 10.1919 28.1151 9.9444 25.2128C9.9444 25.1003 8.09951 12.1186 7.49204 6.58394C7.46955 5.27902 6.95208 4.0416 6.02963 3.11915C5.71465 2.89417 5.33218 2.75918 4.9497 2.75918H1.37242C0.607463 2.75918 0 2.15171 0 1.38676C0 0.621807 0.607463 0.0143437 1.37242 0.0143437H4.63472C5.71465 -0.0756509 6.79459 0.261829 7.64954 0.914289C9.17944 2.26421 10.1019 4.17659 10.1694 6.22397C10.8443 11.7811 12.5992 24.7403 12.6217 24.7403C12.6442 24.7403 12.9817 27.7777 15.5016 27.9801C18.3139 28.1376 41.1725 27.9801 41.4425 27.9801C42.1624 27.9576 42.7699 28.5426 42.7924 29.2626V29.3076C42.7924 30.05 42.2074 30.6575 41.465 30.6575C40.7675 30.7025 31.0031 30.77 23.5111 30.77Z" fill="white"/>
<path d="M9.80921 24.1104L7.10938 2.37668H40.1599C41.5098 2.1967 42.8597 2.60167 43.8721 3.52412C44.9071 4.76154 45.2671 6.44894 44.7946 7.97884C44.1871 11.1512 42.1172 19.0932 42.0048 19.4756C41.9148 19.8356 40.9698 23.1879 34.9177 23.5704C29.7205 23.9079 11.7216 24.1554 10.9566 24.1779L9.80921 24.1104ZM10.1692 4.98653L12.1941 21.3655C16.4238 21.3655 30.463 21.073 34.8052 20.7806C38.8099 20.5106 39.4174 18.7557 39.4399 18.6882C39.4624 18.6207 41.5773 10.5662 42.1622 7.41638C42.4097 6.71892 42.3197 5.97647 41.9598 5.3465C41.5323 5.03152 40.9923 4.91903 40.4748 4.98653H10.1692Z" fill="white"/>
</svg>
