<svg width="60" height="60" viewBox="0 0 60 60" fill="none" xmlns="http://www.w3.org/2000/svg">
<g id="&#229;&#144;&#172;&#232;&#175;&#138;&#229;&#153;&#168;,&#232;&#175;&#138;&#230;&#150;&#173;,stethoscope 1" clip-path="url(#clip0_2_273)">
<path id="Vector" d="M52.1119 29.7581C49.3219 29.7581 46.8619 31.2113 45.4631 33.4013C44.1262 33.3694 42.9394 33.615 41.8894 34.1344C38.6831 35.7206 37.65 39.3225 36.6469 42.8044C35.1787 47.9213 34.0425 51.0713 29.3794 51.3581C27.1669 51.4969 25.4325 50.9156 24.12 49.5863C22.1813 47.6213 21.4181 42.7781 21.1481 40.2956C21.0985 39.8436 21.1687 39.3864 21.3517 38.97C21.5347 38.5537 21.824 38.1929 22.1906 37.9238C31.9519 30.7388 36.5869 23.8163 35.9719 17.3288C35.3906 11.16 30.2606 7.37813 27.5963 5.8125C27.8231 6.3525 27.8231 6.3525 27.5963 5.8125C27.2124 4.90803 26.5429 4.15418 25.69 3.66627C24.8372 3.17835 23.848 2.98323 22.8737 3.11075C21.8995 3.23827 20.9939 3.68141 20.2953 4.37238C19.5968 5.06336 19.1438 5.96413 19.0057 6.93692C18.8676 7.90972 19.0519 8.90098 19.5305 9.75909C20.0091 10.6172 20.7556 11.2949 21.6558 11.6886C22.5561 12.0822 23.5605 12.1702 24.5154 11.9389C25.4704 11.7077 26.3233 11.17 26.9438 10.4081C28.9613 11.8706 31.4569 14.3344 31.7775 17.7225C32.025 20.325 30.945 23.1806 28.6012 26.2294L7.46625 26.2388C5.15813 23.1863 4.08563 20.3494 4.32188 17.7675C4.6125 14.6381 8.73 10.7569 8.73 10.7569C9.14573 11.1734 9.63971 11.5036 10.1835 11.7286C10.7273 11.9535 11.3103 12.0687 11.8987 12.0675C14.3775 12.0675 16.3856 10.0538 16.3856 7.57125C16.3879 6.47949 15.9926 5.42425 15.2735 4.60276C14.5544 3.78127 13.5607 3.24976 12.4783 3.10756C11.3958 2.96536 10.2986 3.2222 9.39173 3.83009C8.48485 4.43798 7.83038 5.35531 7.55062 6.41063V6.41438C4.77 8.24438 0.650625 11.8425 0.136875 17.3325C-0.525 24.2569 4.83375 31.6275 15.9581 39.3788C17.1694 40.2244 17.5444 48.9019 21.1088 52.5338C23.1075 54.5663 25.6763 55.59 28.7531 55.59C29.0438 55.59 29.34 55.5825 29.6438 55.5619C37.5056 55.08 39.3525 48.6581 40.6987 43.9688C41.4806 41.2444 42.2212 38.6719 43.7606 37.9106C43.9031 37.8394 44.085 38.3175 44.25 38.2725C44.3025 42.5869 47.7881 45.5325 52.1137 45.5325C54.2056 45.5323 56.2116 44.7011 57.6906 43.2217C59.1695 41.7424 60.0002 39.7362 60 37.6444C59.9997 35.5526 59.1685 33.5465 57.6892 32.0676C56.2099 30.5886 54.2037 29.7579 52.1119 29.7581ZM11.3719 30.3675H24.7312C23.1782 31.8445 21.5242 33.2116 19.7813 34.4588C19.2776 34.8238 18.6711 35.0195 18.0491 35.0178C17.4271 35.0162 16.8217 34.8171 16.32 34.4494C14.46 33.0863 12.8081 31.7475 11.3719 30.3675ZM56.0662 39.7163C56.1782 39.134 56.16 38.5342 56.013 37.9598C55.866 37.3853 55.5938 36.8505 55.2159 36.3936C54.8381 35.9367 54.3638 35.569 53.8272 35.3169C53.2906 35.0647 52.7048 34.9343 52.1119 34.935C51.5191 34.9351 50.9336 35.066 50.3971 35.3183C49.8607 35.5707 49.3866 35.9383 49.0085 36.3949C48.6305 36.8516 48.3579 37.386 48.2101 37.9601C48.0624 38.5342 48.0431 39.1338 48.1537 39.7163C47.798 39.0358 47.6237 38.2751 47.6478 37.5077C47.6719 36.7402 47.8935 35.9919 48.2913 35.3352C48.689 34.6784 49.2494 34.1353 49.9184 33.7583C50.5873 33.3814 51.3422 33.1834 52.11 33.1834C52.8778 33.1834 53.6327 33.3814 54.3016 33.7583C54.9706 34.1353 55.531 34.6784 55.9287 35.3352C56.3265 35.9919 56.5481 36.7402 56.5722 37.5077C56.5963 38.2751 56.422 39.0358 56.0662 39.7163Z" fill="white"/>
</g>
<defs>
<clipPath id="clip0_2_273">
<rect width="60" height="60" fill="white"/>
</clipPath>
</defs>
</svg>
