<svg width="64" height="60" viewBox="0 0 64 60" fill="none" xmlns="http://www.w3.org/2000/svg">
<path id="Vector" d="M61.9534 5.31073C60.9303 4.29379 59.4525 3.61582 57.9747 3.61582H53.7687C53.314 1.58192 51.4952 0 49.3354 0H44.7883C42.6285 0 40.8097 1.46893 40.355 3.61582H24.213C23.7583 1.58192 21.9395 0 19.7796 0H15.2326C13.0727 0 11.2539 1.46893 10.7992 3.61582H5.6838C4.20601 3.61582 2.72822 4.18079 1.70514 5.31073C0.56838 6.44068 0 7.90961 0 9.37853V19.096H63.6585V9.37853C63.6585 7.90961 63.0902 6.44068 61.9534 5.31073ZM0 24.7458V54.3503C0 57.5141 2.50087 60 5.6838 60H57.9747C61.1577 60 63.6585 57.4011 63.6585 54.3503V24.7458H0ZM20.348 40.452H29.4421V31.2994H33.9891V40.452H43.0832V44.9718H33.9891V54.1243H29.4421V44.9718H20.348V40.452Z" fill="white"/>
</svg>
