<svg width="61" height="61" viewBox="0 0 61 61" fill="none" xmlns="http://www.w3.org/2000/svg">
<g id="&#229;&#142;&#134;&#229;&#143;&#178;&#232;&#174;&#176;&#229;&#189;&#149; 1">
<path id="Vector" d="M47.2455 4.12427C49.848 4.12427 51.9577 6.23398 51.9577 8.83646L51.9578 35.204C50.7366 34.7726 49.4224 34.5378 48.0533 34.5378C41.5843 34.5378 36.3402 39.7795 36.3402 46.2456C36.3402 50.545 38.6587 54.3031 42.114 56.3389L14.9335 56.3386C12.331 56.3386 10.2213 54.2289 10.2213 51.6264V8.83646C10.2213 6.23398 12.331 4.12427 14.9335 4.12427H47.2455ZM35.2639 31.8463H15.6058C14.6396 31.8463 13.8564 32.6295 13.8564 33.5957C13.8564 34.5619 14.6396 35.3452 15.6058 35.3452H35.2639C36.2301 35.3452 37.0134 34.5619 37.0134 33.5957C37.0134 32.6295 36.2302 31.8463 35.2639 31.8463ZM46.5732 22.4262H15.6058C14.6396 22.4262 13.8564 23.2094 13.8564 24.1756C13.8564 25.1418 14.6396 25.9251 15.6058 25.9251H46.5732C47.5394 25.9251 48.3226 25.1419 48.3226 24.1756C48.3226 23.2095 47.5394 22.4262 46.5732 22.4262ZM35.2639 13.0061H15.6058C14.6396 13.0061 13.8564 13.7893 13.8564 14.7555C13.8564 15.7217 14.6396 16.505 15.6058 16.505H35.2639C36.2301 16.505 37.0134 15.7218 37.0134 14.7555C37.0134 13.7894 36.2302 13.0061 35.2639 13.0061Z" fill="white"/>
<path id="Vector_2" d="M48.0652 36.1436C53.6419 36.1436 58.1627 40.6643 58.1627 46.2411C58.1627 51.8179 53.6419 56.3387 48.0652 56.3387C42.4884 56.3387 37.9676 51.8179 37.9676 46.2411C37.9676 40.6643 42.4884 36.1436 48.0652 36.1436ZM48.9646 40.7211C48.5734 40.7211 48.2563 41.0382 48.2563 41.4294V46.7302L44.5012 50.4402L44.4955 50.4459C44.2273 50.7171 44.2297 51.1544 44.501 51.4227C44.7763 51.695 45.2195 51.6951 45.4951 51.4229L49.475 47.4909L49.4807 47.4852C49.5561 47.409 49.6128 47.3164 49.6461 47.2145C49.6795 47.1126 49.6886 47.0044 49.6729 46.8984L49.6728 41.4293C49.6728 41.0382 49.3557 40.7211 48.9646 40.7211Z" fill="white"/>
</g>
</svg>
