<svg width="46" height="46" viewBox="0 0 46 46" fill="none" xmlns="http://www.w3.org/2000/svg">
<g id="&#230;&#136;&#145;&#231;&#154;&#132; 1">
<path id="Vector" d="M13.3602 12.793C13.3602 18.1016 17.6625 22.4038 22.9711 22.4038C28.2797 22.4038 32.5819 18.1016 32.5819 12.793C32.5819 7.48441 28.2797 3.18217 22.9711 3.18217C17.6625 3.17777 13.3602 7.48441 13.3602 12.793Z" fill="white"/>
<path id="Vector_2" d="M41.3929 31.5445C40.7382 26.6094 37.3148 22.0918 32.8192 21.4019H30.8373C29.1718 24.1133 26.201 25.9371 22.7821 25.9371C19.3632 25.9371 16.3925 24.1133 14.7225 21.4019H12.7582C8.7987 22.0918 4.87878 26.3809 4.224 31.3204C4.1405 31.7422 3.50329 36.563 3.51208 36.774C3.54285 38.7998 4.75134 40.5357 6.45642 41.4981C7.33972 42.0079 8.34607 42.3199 9.40075 42.3199H36.1722C37.2269 42.3199 38.2333 42.0035 39.1166 41.4981C40.8217 40.5313 42.0345 38.7954 42.0609 36.774C42.0741 36.5586 41.4764 31.962 41.3929 31.5445Z" fill="white"/>
</g>
</svg>
