<svg width="61" height="61" viewBox="0 0 61 61" fill="none" xmlns="http://www.w3.org/2000/svg">
<g id="&#232;&#180;&#173;&#228;&#185;&#176;&#230;&#160;&#143; 1">
<path id="Vector" d="M54.6956 21.8619H53.0531L49.7637 44.8705C49.7637 48.5027 46.8236 51.4492 43.1914 51.4492H15.2467C11.6186 51.4492 8.67431 48.5048 8.67431 44.8705L7.03175 21.8619H5.38496C4.4769 21.8619 3.7424 21.1211 3.7424 20.2151C3.7424 19.7795 3.91546 19.3617 4.2235 19.0537C4.53154 18.7456 4.94933 18.5726 5.38496 18.5726H16.3114L12.7807 11.9939H8.6722C7.76413 11.9939 7.02964 11.2594 7.02964 10.3513C7.02964 9.91567 7.20269 9.49788 7.51073 9.18984C7.81877 8.8818 8.23656 8.70874 8.6722 8.70874H15.2446L20.4516 18.5705H39.7644L44.8318 8.70874H51.4105C51.8461 8.70874 52.2639 8.8818 52.572 9.18984C52.88 9.49788 53.0531 9.91567 53.0531 10.3513C53.0531 11.2594 52.3186 11.9939 51.4105 11.9939H47.2978L43.9682 18.5726H54.6956C55.6037 18.5726 56.3424 19.3071 56.3424 20.2151C56.3424 21.1211 55.6016 21.8619 54.6956 21.8619ZM20.1765 21.8619H10.3148L10.7847 28.4343H20.1786V21.8619H20.1765ZM20.1765 31.7236H11.0196L11.4895 38.296H20.1786V31.7236H20.1765ZM20.1765 41.5853H11.7224L11.9616 44.8683C11.9616 46.6866 13.4305 48.1577 15.2446 48.1577H20.1765V41.5853ZM39.902 48.1598H43.1914C45.0054 48.1598 46.4807 46.6908 46.4807 44.8705L46.9506 41.5875H39.9041V48.1598H39.902ZM39.902 38.296H47.4184L48.3561 31.7236H39.902V38.296ZM36.6169 21.8619H23.4658V28.4343H36.6169V21.8619ZM36.6169 31.7236H23.4658V38.296H36.6169V31.7236ZM36.6169 41.5853H23.4658V48.1577H36.6169V41.5853ZM39.902 21.8619V28.4343H48.826L49.7637 21.8619H39.902Z" fill="white"/>
</g>
</svg>
