<svg width="61" height="61" viewBox="0 0 61 61" fill="none" xmlns="http://www.w3.org/2000/svg">
<g id="&#229;&#176;&#177;&#232;&#175;&#138;&#232;&#174;&#176;&#229;&#189;&#149; (1) 1">
<path id="Vector" d="M18.0293 16.5557C18.0293 23.5342 23.6777 29.1826 30.6562 29.1826C37.6348 29.1826 43.2832 23.5342 43.2832 16.5557C43.2832 9.57715 37.6348 3.92871 30.6562 3.92871C23.6777 4.25684 18.0293 9.57715 18.0293 16.5557ZM21.0234 16.5557C21.0234 11.2412 25.3418 6.91699 30.6621 6.91699C35.9766 6.91699 40.3008 11.2354 40.3008 16.5557C40.3008 21.8701 35.9824 25.8604 30.6621 26.1943C25.3418 26.1885 21.0234 21.8701 21.0234 16.5557ZM44.6133 14.5576C44.9473 15.5537 44.9473 16.5498 44.9473 17.2178C44.9473 18.2139 44.9473 18.8818 44.6133 19.8779H45.9434C45.9434 20.54 45.9434 21.208 45.6094 22.2041C45.2754 24.1963 44.6133 25.8604 43.6172 26.8564C42.2871 28.1865 38.9648 30.5127 35.9766 33.167C33.6504 34.8311 31.6582 36.8232 30.6621 39.4775C29.666 36.8174 27.6738 34.8252 25.6758 33.167C22.6875 30.5068 19.3652 28.1807 18.0352 26.8564C17.0391 25.8604 16.3711 23.8682 15.709 21.8701C15.709 21.208 15.375 20.2061 15.375 19.5439H16.7051C16.7051 18.8818 16.3711 18.2139 16.3711 17.2178C16.3711 16.2217 16.3711 15.2256 16.7051 14.5576C15.375 14.5576 13.7168 15.8877 13.7168 17.2178C13.7168 18.2139 13.7168 20.2061 14.0508 22.2041C14.3848 24.1963 15.0469 26.5225 16.7109 27.8525C18.375 29.5166 21.6973 31.5088 24.6855 34.1631C27.3457 37.1514 29.6719 40.1455 29.6719 43.4678V45.7939C28.6758 46.1279 27.6797 47.124 27.6797 48.4541C27.6797 50.1182 29.0098 51.1143 30.3398 51.1143C32.0039 51.1143 33 49.7842 33 48.4541C33 47.124 32.3379 46.1279 31.0078 45.7939V43.4678C31.0078 40.1455 33.334 37.1572 36.3223 34.4971C39.3105 31.8369 42.3047 29.8447 44.2969 28.1865C45.6269 26.8564 46.623 24.5303 46.957 22.5381C47.291 20.5459 47.291 18.5537 47.291 17.5518C47.6016 15.8877 45.9434 14.5576 44.6133 14.5576ZM45.9434 46.1279V43.4678H42.2871V39.8115H39.6269V43.4678H35.6367V46.1279H39.293V49.7842H41.9531V46.1279H45.9434ZM54.2519 52.4385C52.9219 45.126 50.5957 39.4775 46.6113 35.4932C45.2812 33.8291 43.2891 32.5049 41.625 31.8369C40.6289 32.499 39.9609 33.167 38.9648 33.8291C40.957 34.8252 42.9551 36.1553 44.6133 37.4854C47.9355 41.1416 50.2617 46.4561 51.5918 53.4346H10.3887V53.1006C11.3848 46.4561 13.7109 41.1357 17.3672 37.4854C19.0312 35.8213 20.6895 34.4971 23.0156 33.8291C21.3516 32.833 20.6895 32.165 19.6934 31.5029C17.7012 32.499 16.0371 33.8291 14.707 35.4873C10.7227 39.4834 8.39648 45.46 7.06641 52.4385V56.4287H54.5801V53.4404C54.2519 53.1064 54.2519 52.7725 54.2519 52.4385Z" fill="white"/>
</g>
</svg>
