<svg width="60" height="60" viewBox="0 0 60 60" fill="none" xmlns="http://www.w3.org/2000/svg">
<g id="&#230;&#137;&#139;&#231;&#142;&#175; 1">
<path id="Vector" d="M39.624 39.204C39.6242 39.6039 39.5455 39.9999 39.3926 40.3694C39.2397 40.7389 39.0155 41.0747 38.7327 41.3575C38.45 41.6403 38.1144 41.8647 37.7449 42.0178C37.3755 42.1708 36.9795 42.2496 36.5796 42.2496H23.4204C22.6129 42.2496 21.8384 41.9289 21.2673 41.358C20.6961 40.7871 20.3751 40.0128 20.3748 39.2052V20.7948C20.3748 19.1148 21.738 17.7504 23.4204 17.7504H36.5796C37.3871 17.7504 38.1616 18.0711 38.7327 18.642C39.3039 19.2129 39.6249 19.9873 39.6252 20.7948V39.2052L39.624 39.204ZM41.28 15.5352C40.1652 14.5836 39.6264 13.1208 39.6264 11.6556V7.25162C39.6264 6.79194 39.5359 6.33676 39.3599 5.91208C39.184 5.48739 38.9262 5.10151 38.6012 4.77646C38.2761 4.45142 37.8902 4.19358 37.4655 4.01767C37.0409 3.84176 36.5857 3.75122 36.126 3.75122H23.8752C22.9468 3.75122 22.0565 4.12001 21.4 4.77646C20.7436 5.43292 20.3748 6.32326 20.3748 7.25162V11.6556C20.3748 13.1196 19.836 14.5848 18.7212 15.5352C18.1419 16.0248 17.6765 16.635 17.3575 17.3231C17.0385 18.0112 16.8736 18.7607 16.8744 19.5192V40.4832C16.8744 42.0828 17.592 43.5072 18.7212 44.4684C19.836 45.4164 20.3748 46.884 20.3748 48.348V52.752C20.3751 53.6802 20.744 54.5702 21.4005 55.2264C22.0569 55.8826 22.947 56.2512 23.8752 56.2512H36.1248C36.5845 56.2512 37.0397 56.1607 37.4643 55.9848C37.889 55.8089 38.2749 55.551 38.6 55.226C38.925 54.9009 39.1828 54.5151 39.3587 54.0904C39.5347 53.6657 39.6252 53.2105 39.6252 52.7508V48.348C39.6252 46.884 40.164 45.4164 41.2788 44.4684C41.8576 43.9785 42.3227 43.3682 42.6414 42.6802C42.9602 41.9921 43.125 41.2428 43.1244 40.4844V19.5168C43.1254 18.7584 42.9608 18.009 42.642 17.3208C42.3232 16.6327 41.858 16.0225 41.2788 15.5328L41.28 15.5352Z" fill="white"/>
</g>
</svg>
