<svg width="137" height="137" viewBox="0 0 137 137" fill="none" xmlns="http://www.w3.org/2000/svg">
<path d="M68.487 0.685791C31.0975 0.685791 0.685822 31.0973 0.685822 68.4869C0.685822 105.877 31.0973 136.288 68.487 136.288C105.877 136.288 136.288 105.877 136.288 68.4869C136.288 31.0973 105.877 0.685791 68.487 0.685791ZM68.487 126.576C36.4612 126.576 10.3978 100.513 10.3978 68.4869C10.3978 36.4611 36.4351 10.3978 68.487 10.3978C100.539 10.3978 126.576 36.4351 126.576 68.4869C126.576 100.539 100.513 126.576 68.487 126.576ZM92.7277 68.4869H68.513V34.6125C68.513 31.9307 66.3519 29.7434 63.67 29.7434C60.9881 29.7434 58.827 31.9306 58.827 34.6125V73.356C58.827 76.0377 60.9881 78.199 63.67 78.199H92.7277C95.4094 78.199 97.5967 76.0379 97.5967 73.356C97.5707 70.6482 95.3836 68.4869 92.7277 68.4869Z" fill="#6F84A6"/>
</svg>
