<svg width="23" height="24" viewBox="0 0 23 24" fill="none" xmlns="http://www.w3.org/2000/svg">
<path d="M17.5808 11.0279L7.0386 3.69927C6.90128 3.60389 6.74047 3.54793 6.57361 3.53745C6.40674 3.52696 6.24019 3.56237 6.09202 3.63981C5.9438 3.71726 5.81963 3.83383 5.73298 3.97686C5.64633 4.1199 5.60052 4.28394 5.60051 4.45117V19.1094C5.60051 19.2767 5.64632 19.4407 5.73297 19.5837C5.81962 19.7268 5.9438 19.8434 6.09202 19.9208C6.22286 19.9893 6.36835 20.025 6.51602 20.025C6.70284 20.0251 6.8852 19.968 7.0386 19.8613L17.5808 12.5318C17.7021 12.4474 17.8012 12.335 17.8696 12.2041C17.938 12.0731 17.9737 11.9276 17.9738 11.7799C17.9737 11.6321 17.938 11.4866 17.8696 11.3557C17.8012 11.2247 17.7021 11.1123 17.5808 11.0279Z" fill="white"/>
</svg>
