<svg width="60" height="61" viewBox="0 0 60 61" fill="none" xmlns="http://www.w3.org/2000/svg">
<path d="M46.4486 4.63989C49.0511 4.63989 51.1608 6.74961 51.1608 9.35209L51.1609 35.7197C49.9397 35.2882 48.6254 35.0534 47.2564 35.0534C40.7874 35.0534 35.5432 40.2952 35.5432 46.7612C35.5432 51.0606 37.8617 54.8187 41.3171 56.8545L14.1365 56.8542C11.534 56.8542 9.42432 54.7445 9.42432 52.142V9.35209C9.42432 6.74961 11.534 4.63989 14.1365 4.63989H46.4486ZM34.467 32.3619H14.8089C13.8427 32.3619 13.0594 33.1452 13.0594 34.1114C13.0594 35.0776 13.8427 35.8608 14.8089 35.8608H34.467C35.4332 35.8608 36.2164 35.0776 36.2164 34.1114C36.2164 33.1452 35.4332 32.3619 34.467 32.3619ZM45.7762 22.9418H14.8089C13.8427 22.9418 13.0594 23.725 13.0594 24.6912C13.0594 25.6575 13.8427 26.4407 14.8089 26.4407H45.7762C46.7424 26.4407 47.5257 25.6575 47.5257 24.6912C47.5257 23.7251 46.7424 22.9418 45.7762 22.9418ZM34.467 13.5217H14.8089C13.8427 13.5217 13.0594 14.3049 13.0594 15.2711C13.0594 16.2373 13.8427 17.0206 14.8089 17.0206H34.467C35.4332 17.0206 36.2164 16.2374 36.2164 15.2711C36.2164 14.305 35.4332 13.5217 34.467 13.5217Z" fill="white"/>
<path d="M47.2682 36.6592C52.845 36.6592 57.3658 41.18 57.3658 46.7567C57.3658 52.3335 52.845 56.8543 47.2682 56.8543C41.6914 56.8543 37.1707 52.3335 37.1707 46.7567C37.1707 41.18 41.6914 36.6592 47.2682 36.6592ZM48.1676 41.2367C47.7765 41.2367 47.4594 41.5538 47.4594 41.945V47.2458L43.7043 50.9558L43.6985 50.9615C43.4303 51.2327 43.4328 51.6701 43.704 51.9383C43.9794 52.2106 44.4226 52.2107 44.6981 51.9385L48.678 48.0065L48.6837 48.0008C48.7592 47.9247 48.8158 47.832 48.8492 47.7301C48.8825 47.6282 48.8917 47.52 48.8759 47.414L48.8759 41.9449C48.8759 41.5538 48.5588 41.2367 48.1676 41.2367Z" fill="white"/>
</svg>
