<svg width="60" height="61" viewBox="0 0 60 61" fill="none" xmlns="http://www.w3.org/2000/svg">
<path d="M27.3809 31.5723V20.8496C27.3809 18.7051 28.0957 18.2305 30 18.2305H48.3457C51.0879 18.2305 56.209 21.9219 56.209 28.8301C56.209 30.2598 55.0195 31.4492 53.5898 31.4492H27.3809V31.5723ZM18.3281 31.5723C14.7539 31.5723 11.7773 28.5957 11.7773 24.9043C11.7773 21.2129 14.6367 18.2363 18.3281 18.2363C21.9023 18.2363 24.8789 21.2129 24.8789 24.9043C24.7617 28.5957 21.9023 31.5723 18.3281 31.5723ZM56.209 36.9336V46.9414C56.209 48.3711 55.0195 49.5605 53.5898 49.5605C52.1602 49.5605 50.9707 48.3711 50.9707 46.9414V42.1777C50.9707 40.748 49.7812 39.5586 48.3516 39.5586H11.6543C10.2246 39.5586 9.03516 40.748 9.03516 42.1777V46.9414C9.03516 48.3711 7.8457 49.5605 6.41602 49.5605C4.98633 49.5605 3.79688 48.3711 3.79688 46.9414V14.0644C3.79688 12.9922 4.27148 11.4453 6.41602 11.4453C6.41602 11.4453 9.03516 11.3281 9.03516 14.0644V31.5723C9.03516 33.0019 10.2246 34.1914 11.6543 34.1914H53.584C54.6562 34.1914 56.209 34.4316 56.209 36.9336Z" fill="white"/>
</svg>
