<svg width="60" height="61" viewBox="0 0 60 61" fill="none" xmlns="http://www.w3.org/2000/svg">
<path d="M51.9596 35.7554V34.7449C52.5891 34.4751 54.9275 35.6442 54.9275 35.6442L55.8268 34.7449C54.3878 31.5073 45.934 30.4999 45.934 30.4999L40.8977 17.1177H46.3837V11.5417H39.009L35.6815 15.4989L30 16.758L30.5552 18.3768L36.4909 17.4775C37.2103 18.197 39.009 32.049 39.009 32.049C36.7607 33.4001 34.962 37.5329 34.962 37.5329H29.5659C27.0477 35.4644 27.1377 30.5 27.1377 30.5H6.54267C6.63261 32.9102 4.29431 37.353 4.29431 37.353C5.12091 37.4632 6.2512 38.4511 7.00279 39.2C6.50615 40.249 6.22794 41.4215 6.22794 42.6592C6.22794 47.1294 9.85176 50.7532 14.322 50.7532C18.2379 50.7532 21.5041 47.9725 22.2541 44.2779H39.8007C40.5507 47.9725 43.8169 50.7532 47.7328 50.7532C52.203 50.7532 55.8268 47.1294 55.8268 42.6592C55.8268 39.7381 54.2793 37.1787 51.9596 35.7554ZM14.322 45.6719C12.6581 45.6719 11.3093 44.323 11.3093 42.6591C11.3093 40.9952 12.6581 39.6463 14.322 39.6463C15.986 39.6463 17.3348 40.9952 17.3348 42.6591C17.3348 44.323 15.986 45.6719 14.322 45.6719ZM47.7328 45.6719C46.0688 45.6719 44.7199 44.323 44.7199 42.6591C44.7199 40.9952 46.0688 39.6463 47.7328 39.6463C49.3966 39.6463 50.7455 40.9952 50.7455 42.6591C50.7455 44.323 49.3966 45.6719 47.7328 45.6719ZM26.868 26.0964C26.868 26.5683 26.4856 26.9508 26.0137 26.9508H7.66702C7.19514 26.9508 6.81266 26.5683 6.81266 26.0964C6.81266 25.6246 7.19514 25.242 7.66702 25.242H26.0137C26.4856 25.242 26.868 25.6246 26.868 26.0964Z" fill="white"/>
</svg>
