<svg width="60" height="61" viewBox="0 0 60 61" fill="none" xmlns="http://www.w3.org/2000/svg">
<mask id="path-1-outside-1_2_480" maskUnits="userSpaceOnUse" x="10.1141" y="3.86646" width="40" height="54" fill="black">
<rect fill="white" x="10.1141" y="3.86646" width="40" height="54"/>
<path fill-rule="evenodd" clip-rule="evenodd" d="M48.8876 10.2644V9.72092C48.8876 8.06571 48.2329 6.89224 47.2447 6.39814C46.2689 5.45319 44.9472 4.86646 43.4896 4.86646H16.5121C13.5352 4.86646 11.1141 7.28134 11.1141 10.2644V39.4777C11.1141 42.4546 13.529 44.8757 16.5121 44.8757H18.6676V52.5465C18.6676 55.3134 20.471 56.7895 22.6944 55.8507L44.8545 46.4815C47.078 45.5427 48.8814 42.5349 48.8814 39.768V10.2644H48.8876ZM16.5121 43.5231C14.2825 43.5231 12.4667 41.7073 12.4667 39.4777V10.2644C12.4667 8.03483 14.2825 6.21904 16.5121 6.21904H43.4896C43.9405 6.21904 44.3728 6.31168 44.7742 6.44755L22.7006 15.7797C20.4772 16.7185 18.6738 19.7263 18.6738 22.4932V43.5231H16.5121ZM27.0333 40.2226C27.1864 39.8923 27.2718 39.5243 27.2718 39.1363V32.2583C27.2718 30.8297 26.1137 29.6717 24.6852 29.6717C23.2567 29.6717 22.0986 30.8297 22.0986 32.2583V39.1363C22.0986 40.5047 23.1612 41.6249 24.5062 41.7168C24.5957 41.7268 24.6866 41.7319 24.7788 41.7319C25.7963 41.7319 26.6682 41.1084 27.0333 40.2226Z"/>
</mask>
<path fill-rule="evenodd" clip-rule="evenodd" d="M48.8876 10.2644V9.72092C48.8876 8.06571 48.2329 6.89224 47.2447 6.39814C46.2689 5.45319 44.9472 4.86646 43.4896 4.86646H16.5121C13.5352 4.86646 11.1141 7.28134 11.1141 10.2644V39.4777C11.1141 42.4546 13.529 44.8757 16.5121 44.8757H18.6676V52.5465C18.6676 55.3134 20.471 56.7895 22.6944 55.8507L44.8545 46.4815C47.078 45.5427 48.8814 42.5349 48.8814 39.768V10.2644H48.8876ZM16.5121 43.5231C14.2825 43.5231 12.4667 41.7073 12.4667 39.4777V10.2644C12.4667 8.03483 14.2825 6.21904 16.5121 6.21904H43.4896C43.9405 6.21904 44.3728 6.31168 44.7742 6.44755L22.7006 15.7797C20.4772 16.7185 18.6738 19.7263 18.6738 22.4932V43.5231H16.5121ZM27.0333 40.2226C27.1864 39.8923 27.2718 39.5243 27.2718 39.1363V32.2583C27.2718 30.8297 26.1137 29.6717 24.6852 29.6717C23.2567 29.6717 22.0986 30.8297 22.0986 32.2583V39.1363C22.0986 40.5047 23.1612 41.6249 24.5062 41.7168C24.5957 41.7268 24.6866 41.7319 24.7788 41.7319C25.7963 41.7319 26.6682 41.1084 27.0333 40.2226Z" fill="white"/>
<path d="M48.8876 10.2644V11.2644H49.8876V10.2644H48.8876ZM47.2447 6.39814L46.5491 7.11653L46.6597 7.22368L46.7975 7.29257L47.2447 6.39814ZM18.6676 44.8757H19.6676V43.8757H18.6676V44.8757ZM22.6944 55.8507L23.0834 56.772L23.0839 56.7718L22.6944 55.8507ZM44.8545 46.4815L44.4656 45.5602L44.4651 45.5604L44.8545 46.4815ZM48.8814 10.2644V9.26442H47.8814V10.2644H48.8814ZM44.7742 6.44755L45.1636 7.36862L47.5873 6.34395L45.0948 5.50034L44.7742 6.44755ZM22.7006 15.7797L23.0896 16.701L23.09 16.7008L22.7006 15.7797ZM18.6738 43.5231V44.5231H19.6738V43.5231H18.6738ZM27.0333 40.2226L26.126 39.8022L26.117 39.8217L26.1088 39.8416L27.0333 40.2226ZM24.5062 41.7168L24.6168 40.723L24.5956 40.7206L24.5744 40.7191L24.5062 41.7168ZM47.8876 9.72092V10.2644H49.8876V9.72092H47.8876ZM46.7975 7.29257C47.3407 7.56417 47.8876 8.30904 47.8876 9.72092H49.8876C49.8876 7.82238 49.1251 6.22031 47.6919 5.50372L46.7975 7.29257ZM43.4896 5.86646C44.6724 5.86646 45.7486 6.3414 46.5491 7.11653L47.9404 5.67976C46.7891 4.56498 45.2219 3.86646 43.4896 3.86646V5.86646ZM16.5121 5.86646H43.4896V3.86646H16.5121V5.86646ZM12.1141 10.2644C12.1141 7.83437 14.0867 5.86646 16.5121 5.86646V3.86646C12.9837 3.86646 10.1141 6.72831 10.1141 10.2644H12.1141ZM12.1141 39.4777V10.2644H10.1141V39.4777H12.1141ZM16.5121 43.8757C14.082 43.8757 12.1141 41.9031 12.1141 39.4777H10.1141C10.1141 43.0061 12.976 45.8757 16.5121 45.8757V43.8757ZM18.6676 43.8757H16.5121V45.8757H18.6676V43.8757ZM19.6676 52.5465V44.8757H17.6676V52.5465H19.6676ZM22.3055 54.9295C21.475 55.2801 20.8752 55.138 20.4813 54.8149C20.0519 54.4629 19.6676 53.7306 19.6676 52.5465H17.6676C17.6676 54.1292 18.185 55.5185 19.2132 56.3615C20.2768 57.2336 21.6905 57.3601 23.0834 56.772L22.3055 54.9295ZM44.4651 45.5604L22.305 54.9297L23.0839 56.7718L45.244 47.4025L44.4651 45.5604ZM47.8814 39.768C47.8814 40.9452 47.4936 42.2131 46.8442 43.2959C46.1904 44.386 45.3286 45.1958 44.4656 45.5602L45.2435 47.4027C46.6039 46.8283 47.7555 45.6648 48.5593 44.3246C49.3675 42.9771 49.8814 41.3577 49.8814 39.768H47.8814ZM47.8814 10.2644V39.768H49.8814V10.2644H47.8814ZM48.8876 9.26442H48.8814V11.2644H48.8876V9.26442ZM11.4667 39.4777C11.4667 42.2596 13.7302 44.5231 16.5121 44.5231V42.5231C14.8348 42.5231 13.4667 41.155 13.4667 39.4777H11.4667ZM11.4667 10.2644V39.4777H13.4667V10.2644H11.4667ZM16.5121 5.21904C13.7302 5.21904 11.4667 7.48254 11.4667 10.2644H13.4667C13.4667 8.58711 14.8348 7.21904 16.5121 7.21904V5.21904ZM43.4896 5.21904H16.5121V7.21904H43.4896V5.21904ZM45.0948 5.50034C44.6198 5.33954 44.0769 5.21904 43.4896 5.21904V7.21904C43.804 7.21904 44.1258 7.28381 44.4536 7.39477L45.0948 5.50034ZM23.09 16.7008L45.1636 7.36862L44.3848 5.52649L22.3112 14.8587L23.09 16.7008ZM19.6738 22.4932C19.6738 21.3161 20.0616 20.0481 20.711 18.9653C21.3648 17.8752 22.2266 17.0654 23.0896 16.701L22.3117 14.8585C20.9512 15.4329 19.7996 16.5964 18.9958 17.9366C18.1877 19.2841 17.6738 20.9035 17.6738 22.4932H19.6738ZM19.6738 43.5231V22.4932H17.6738V43.5231H19.6738ZM16.5121 44.5231H18.6738V42.5231H16.5121V44.5231ZM26.2718 39.1363C26.2718 39.3761 26.2193 39.6009 26.126 39.8022L27.9406 40.6431C28.1535 40.1837 28.2718 39.6725 28.2718 39.1363H26.2718ZM26.2718 32.2583V39.1363H28.2718V32.2583H26.2718ZM24.6852 30.6717C25.5615 30.6717 26.2718 31.382 26.2718 32.2583H28.2718C28.2718 30.2774 26.666 28.6717 24.6852 28.6717V30.6717ZM23.0986 32.2583C23.0986 31.382 23.8089 30.6717 24.6852 30.6717V28.6717C22.7044 28.6717 21.0986 30.2774 21.0986 32.2583H23.0986ZM23.0986 39.1363V32.2583H21.0986V39.1363H23.0986ZM24.5744 40.7191C23.7503 40.6628 23.0986 39.9752 23.0986 39.1363H21.0986C21.0986 41.0341 22.572 42.5869 24.438 42.7145L24.5744 40.7191ZM24.3956 42.7107C24.5217 42.7247 24.6496 42.7319 24.7788 42.7319V40.7319C24.7236 40.7319 24.6696 40.7288 24.6168 40.723L24.3956 42.7107ZM24.7788 42.7319C26.2153 42.7319 27.4437 41.851 27.9578 40.6037L26.1088 39.8416C25.8927 40.3658 25.3773 40.7319 24.7788 40.7319V42.7319Z" fill="white" mask="url(#path-1-outside-1_2_480)"/>
</svg>
