<svg width="61" height="61" viewBox="0 0 61 61" fill="none" xmlns="http://www.w3.org/2000/svg">
<path id="Vector" d="M60.7964 1.75399V16.6852C60.7964 17.304 60.1047 17.6592 59.6141 17.2936L55.1089 13.9342V17.6154C55.1089 17.9227 54.9162 18.1748 54.6797 18.1748H31.5131C31.2766 18.1748 31.0839 17.9227 31.0839 17.6154V0.82378C31.0839 0.516489 31.2766 0.264404 31.5131 0.264404H54.6787C54.9151 0.264404 55.1078 0.516489 55.1078 0.82378V4.50711L59.6131 1.1467C60.1037 0.781071 60.7964 1.13628 60.7964 1.75399ZM53.0297 49.1373C53.0297 55.0717 48.5318 59.9217 42.8651 60.2467C42.5974 60.255 42.3318 60.2602 42.0631 60.2623C41.9401 60.2644 41.8162 60.2644 41.6943 60.2644C19.1068 60.2644 0.796387 41.3509 0.796387 18.0207C0.796387 17.8717 0.796387 17.7238 0.799512 17.5748V17.5415C0.802637 17.2009 0.810971 16.8602 0.823471 16.5217C1.20368 10.7332 5.86931 6.16232 11.5683 6.16232C13.4693 6.16232 15.2547 6.66961 16.8037 7.56232C20.1068 9.46232 22.3401 13.1061 22.3401 17.2873C22.3401 21.8488 19.6839 25.7675 15.8828 27.4842C18.5037 35.5207 24.6401 41.8884 32.4016 44.6363C34.0766 40.7332 37.8578 38.0102 42.2568 38.0102C46.3276 38.0102 49.8714 40.3425 51.7037 43.7842C52.5495 45.3717 53.0297 47.1967 53.0297 49.1373Z" fill="white"/>
</svg>
