<svg width="25" height="23" viewBox="0 0 25 23" fill="none" xmlns="http://www.w3.org/2000/svg">
<g id="Group 17">
<path id="Vector" d="M12.5142 5.66954C14.647 7.52847 16.76 9.36775 18.8731 11.2084C19.5484 11.7967 20.2167 12.3948 20.9019 12.9719C21.2796 13.2892 21.4523 13.6627 21.4481 14.1639C21.4326 16.4721 21.4481 18.7804 21.4382 21.0872C21.434 22.195 21.1378 22.48 20.0511 22.4898C18.3929 22.5038 16.7333 22.5024 15.0752 22.5418C14.6076 22.553 14.4518 22.4294 14.4588 21.9422C14.4869 20.2644 14.4701 18.5852 14.4701 16.9074V16.2377H10.5023V17.7287C10.5023 19.1398 10.4882 20.5522 10.5107 21.9633C10.5163 22.3733 10.411 22.546 9.97295 22.5418C8.25723 22.5249 6.5401 22.546 4.82438 22.5305C3.87526 22.5221 3.56356 22.1936 3.56075 21.236C3.55373 18.8141 3.54812 16.3907 3.57199 13.9688C3.57479 13.6992 3.69835 13.3468 3.89351 13.1755C6.68893 10.696 9.50541 8.24032 12.3177 5.78046C12.3612 5.74395 12.4174 5.72289 12.5142 5.66954Z" fill="white"/>
<path id="Vector_2" d="M17.4486 4.74851C17.4486 3.76288 17.4458 2.9331 17.4486 2.10332C17.4514 1.13173 17.5314 1.0517 18.4777 1.0489C19.1264 1.04749 19.7736 1.04749 20.4223 1.0489C21.377 1.0503 21.443 1.11489 21.4402 2.09911C21.4346 3.8724 21.443 5.64709 21.4065 7.41897C21.3939 8.04657 21.5918 8.50288 22.079 8.90163C22.9201 9.5882 23.726 10.3197 24.5375 11.0414C25.1216 11.5623 25.137 11.7167 24.6709 12.3275C23.6038 13.7273 23.6839 13.7273 22.4104 12.59C19.2822 9.79599 16.1414 7.01602 13.0062 4.23183C12.8518 4.09423 12.6917 3.96225 12.498 3.79518C12.0894 4.14478 11.6977 4.47051 11.3172 4.80888C8.23532 7.53972 5.15629 10.2734 2.07445 13.0042C1.42859 13.577 1.30925 13.5644 0.751852 12.8961C-0.274493 11.6648 -0.277301 11.6605 0.911911 10.6075C4.23525 7.66187 7.56139 4.71762 10.8903 1.77759C12.0894 0.718949 12.8911 0.723161 14.0971 1.7832C14.9564 2.53857 15.8044 3.30657 16.6581 4.06615C16.8785 4.26412 17.106 4.45367 17.4486 4.74851Z" fill="white"/>
<path id="Vector_3" d="M22.7047 9.42535C22.4983 9.24844 22.2905 9.07434 22.0799 8.90305C21.5927 8.5043 21.3947 8.04799 21.4074 7.42039C21.4439 5.6471 21.4355 3.87382 21.4411 2.10053C21.4439 1.1163 21.3779 1.05031 20.4231 1.05031C19.7745 1.04891 19.1272 1.04891 18.4786 1.05031C17.5308 1.05312 17.4522 1.13175 17.4494 2.10474C17.4466 2.93452 17.4494 3.7643 17.4494 4.74993C17.1068 4.45508 16.8794 4.26554 16.6575 4.06898C15.8025 3.30799 14.9545 2.54139 14.0966 1.78603C12.8905 0.725984 12.0888 0.721772 10.8898 1.78041C7.55944 4.71764 4.2347 7.66189 0.911366 10.6075C-0.277846 11.6606 -0.273634 11.6648 0.751307 12.8961C1.30871 13.5658 1.42805 13.5771 2.0739 13.0042C5.15574 10.2734 8.23478 7.53973 11.3166 4.8089C11.6971 4.47193 12.0888 4.1462 12.4974 3.79519C12.6912 3.96227 12.8512 4.09425 13.0057 4.23184C16.0117 6.9009 19.0205 9.56575 22.0195 12.2418C22.3284 11.3376 22.5587 10.3955 22.7047 9.42535Z" fill="white"/>
</g>
</svg>
