<svg width="26" height="26" viewBox="0 0 26 26" fill="none" xmlns="http://www.w3.org/2000/svg">
<path id="Vector" d="M13.2933 0.267448C9.97905 0.267448 6.80053 1.58403 4.457 3.92757C2.11346 6.2711 0.796875 9.44962 0.796875 12.7639C0.796875 16.0781 2.11346 19.2567 4.457 21.6002C6.80053 23.9437 9.97905 25.2603 13.2933 25.2603C13.8199 25.2706 14.3398 25.1412 14.8001 24.8854C15.2604 24.6295 15.6448 24.2562 15.914 23.8036C16.1885 23.3096 16.3259 22.7512 16.3121 22.1862C16.2983 21.6212 16.1337 21.0702 15.8354 20.5902C15.7462 20.4403 15.6391 20.2689 15.5177 20.0868C14.8036 18.9728 14.9071 18.855 15.1821 18.5979C15.5105 18.2909 15.864 18.3444 17.1672 18.9085C17.9172 19.2801 18.7249 19.5216 19.5558 19.6226C20.3193 19.7012 21.0907 19.6192 21.8206 19.3818C22.5505 19.1445 23.2227 18.7571 23.7939 18.2445C25.0828 17.0341 25.7969 15.0846 25.7969 12.7567C25.7893 9.44422 24.4691 6.26975 22.1255 3.92878C19.7818 1.58781 16.6058 0.271219 13.2933 0.267448ZM5.13492 17.4268C4.71123 17.4268 4.29704 17.3012 3.94475 17.0658C3.59246 16.8304 3.31789 16.4958 3.15575 16.1044C2.9936 15.7129 2.95118 15.2822 3.03384 14.8667C3.1165 14.4511 3.32053 14.0694 3.62013 13.7698C3.91972 13.4702 4.30144 13.2662 4.71699 13.1835C5.13255 13.1008 5.56328 13.1433 5.95472 13.3054C6.34617 13.4676 6.68074 13.7421 6.91613 14.0944C7.15153 14.4467 7.27717 14.8609 7.27717 15.2846C7.27717 15.8527 7.05147 16.3976 6.64972 16.7994C6.24797 17.2011 5.70308 17.4268 5.13492 17.4268ZM6.02038 11.0322C5.59669 11.0322 5.18251 10.9066 4.83021 10.6712C4.47792 10.4358 4.20335 10.1012 4.04121 9.70979C3.87906 9.31834 3.83664 8.88761 3.9193 8.47205C4.00196 8.0565 4.20599 7.67479 4.50559 7.37519C4.80518 7.07559 5.1869 6.87156 5.60245 6.7889C6.01801 6.70624 6.44874 6.74867 6.84018 6.91081C7.23163 7.07295 7.5662 7.34753 7.80159 7.69982C8.03699 8.05211 8.16263 8.46629 8.16263 8.88998C8.16263 9.45814 7.93693 10.003 7.53518 10.4048C7.13343 10.8065 6.58854 11.0322 6.02038 11.0322ZM11.1511 6.98696C10.7274 6.98696 10.3132 6.86132 9.96089 6.62592C9.6086 6.39053 9.33403 6.05596 9.17188 5.66451C9.00974 5.27307 8.96732 4.84234 9.04998 4.42678C9.13264 4.01123 9.33667 3.62951 9.63626 3.32992C9.93586 3.03032 10.3176 2.82629 10.7331 2.74363C11.1487 2.66097 11.5794 2.70339 11.9709 2.86554C12.3623 3.02768 12.6969 3.30225 12.9323 3.65454C13.1677 4.00683 13.2933 4.42102 13.2933 4.84471C13.2933 5.41287 13.0676 5.95776 12.6659 6.35951C12.2641 6.76126 11.7192 6.98696 11.1511 6.98696ZM17.4743 7.65105C17.0506 7.65105 16.6364 7.52541 16.2841 7.29002C15.9318 7.05463 15.6572 6.72005 15.4951 6.32861C15.3329 5.93717 15.2905 5.50643 15.3732 5.09088C15.4558 4.67532 15.6599 4.29361 15.9595 3.99401C16.2591 3.69441 16.6408 3.49038 17.0563 3.40773C17.4719 3.32507 17.9026 3.36749 18.2941 3.52963C18.6855 3.69177 19.0201 3.96635 19.2555 4.31864C19.4909 4.67093 19.6165 5.08511 19.6165 5.50881C19.6165 6.07697 19.3908 6.62185 18.989 7.0236C18.5873 7.42535 18.0424 7.65105 17.4743 7.65105Z" fill="white"/>
</svg>
