<svg width="26" height="26" viewBox="0 0 26 26" fill="none" xmlns="http://www.w3.org/2000/svg">
<path d="M8.99789 12.113H3.92534C3.09639 12.1105 2.30209 11.7783 1.71593 11.1889C1.12977 10.5994 0.799364 9.8007 0.796875 8.96712V3.86629C0.799366 3.03251 1.12993 2.23361 1.71635 1.64415C2.30277 1.05469 3.09736 0.722578 3.92652 0.720387H8.99907C9.82802 0.722891 10.6223 1.05514 11.2085 1.64457C11.7946 2.234 12.125 3.03272 12.1275 3.86629V8.96712C12.125 9.80091 11.7945 10.5998 11.2081 11.1893C10.6216 11.7787 9.82705 12.1108 8.99789 12.113ZM24.9564 8.46653L21.6533 11.788C21.1119 12.3288 20.3797 12.6322 19.6166 12.6322C18.8535 12.6322 18.1214 12.3288 17.5799 11.788L14.2769 8.46653C13.7388 7.92203 13.4367 7.18555 13.4367 6.4179C13.4367 5.65024 13.7388 4.91376 14.2769 4.36926L17.5799 1.04779C18.1214 0.506671 18.8538 0.202957 19.6172 0.202957C20.3806 0.202957 21.113 0.506671 21.6545 1.04779L24.9564 4.36926C26.077 5.49619 26.077 7.3396 24.9564 8.46653ZM8.99907 25.3254H3.92652C3.09736 25.3232 2.30277 24.9911 1.71635 24.4016C1.12993 23.8121 0.799366 23.0132 0.796875 22.1795V17.0786C0.799366 16.2449 1.12993 15.446 1.71635 14.8565C2.30277 14.267 3.09736 13.9349 3.92652 13.9327H8.99907C9.82802 13.9352 10.6223 14.2675 11.2085 14.8569C11.7946 15.4463 12.125 16.2451 12.1275 17.0786V22.1795C12.125 23.0132 11.7945 23.8121 11.2081 24.4016C10.6216 24.9911 9.82705 25.3232 8.99789 25.3254H8.99907ZM22.1523 25.3254H17.0798C16.2508 25.3229 15.4565 24.9906 14.8703 24.4012C14.2842 23.8118 13.9538 23.013 13.9513 22.1795V17.0786C13.9538 16.2449 14.2844 15.446 14.8708 14.8565C15.4572 14.267 16.2518 13.9349 17.0809 13.9327H22.1535C22.9824 13.9352 23.7767 14.2675 24.3629 14.8569C24.9491 15.4463 25.2795 16.2451 25.282 17.0786V22.1795C25.2795 23.013 24.9491 23.8118 24.3629 24.4012C23.7767 24.9906 22.9824 25.3229 22.1535 25.3254H22.1523Z" fill="white"/>
</svg>
