<svg width="25" height="25" viewBox="0 0 25 25" fill="none" xmlns="http://www.w3.org/2000/svg">
<path id="Vector" d="M12.5 0C5.66176 0 0 5.66176 0 12.5C0 19.3382 5.66176 25 12.5 25C19.3382 25 25 19.4118 25 12.5C25 5.58824 19.4118 0 12.5 0ZM17.8676 12.9412C17.9412 13.6029 17.4265 14.1176 16.8382 14.1176H12.9412C12.7206 14.1912 12.4265 14.1176 12.0588 14.1176H11.9853C11.3235 14.1176 10.8088 14.3382 10.8088 13.6765V6.61765C10.8088 5.95588 11.3971 5.44118 11.9853 5.44118C12.6471 5.44118 13.1618 6.02941 13.1618 6.61765V11.6912H16.6912C17.3529 11.6912 17.7941 12.2059 17.7941 12.7941C17.8676 12.8676 17.8676 12.9412 17.8676 12.9412Z" fill="white"/>
</svg>
