<svg width="26" height="23" viewBox="0 0 26 23" fill="none" xmlns="http://www.w3.org/2000/svg">
<path d="M23.9344 3.39564C22.4804 1.65519 20.4784 0.696472 17.6999 0.696472C17.6999 0.696472 14.8423 1.02184 13.2467 1.6059C11.6647 1.02184 10.1478 0.711272 8.73245 0.711272C6.23493 0.711272 4.06559 1.65239 2.62422 3.37476C1.06242 5.24102 0.462162 7.85967 0.977191 10.5659C1.38708 12.7171 3.26365 17.091 11.2203 22.233C11.378 22.341 12.1476 22.8318 13.0774 22.8318C14.0174 22.8318 14.8709 22.302 14.9653 22.2417C23.2685 17.1138 25.2065 12.7235 25.6216 10.564C26.139 7.87307 25.4918 5.26027 23.9344 3.39564ZM21.9508 11.0302H19.8089L18.7589 13.7538C18.6836 13.9496 18.4894 14.0735 18.2805 14.0608C18.0711 14.0477 17.8943 13.9005 17.8438 13.697L17.0616 10.5528L15.8273 13.7538C15.7541 13.9437 15.5663 14.066 15.3658 14.0614C15.1622 14.0562 14.9843 13.9231 14.9214 13.7294L13.2918 8.71419L11.8746 13.712C11.8182 13.9106 11.6414 14.051 11.4353 14.0611C11.2309 14.07 11.0398 13.9486 10.9644 13.7564L9.63011 10.3532L8.29576 13.7564C8.28545 13.7827 8.26876 13.8038 8.25445 13.827C8.25305 13.8299 8.25162 13.8324 8.24999 13.835C8.18262 13.9414 8.08122 14.0151 7.96359 14.0444C7.96031 14.0454 7.95819 14.0477 7.95513 14.0484C7.92628 14.0552 7.89788 14.0569 7.86945 14.0585C7.86216 14.059 7.85536 14.0618 7.84808 14.0618C7.84736 14.0618 7.84642 14.0614 7.84571 14.0614C7.84453 14.0614 7.84359 14.0618 7.84242 14.0618C7.78325 14.0618 7.72645 14.0489 7.67293 14.0285C7.67271 14.0285 7.67271 14.0285 7.67271 14.0285C7.67222 14.0282 7.67199 14.028 7.67176 14.0278C7.61425 14.0057 7.56379 13.9712 7.51871 13.9294C7.51353 13.9242 7.50931 13.9188 7.50416 13.9134C7.46682 13.8754 7.43679 13.8318 7.41356 13.782C7.41051 13.7754 7.40793 13.7693 7.40511 13.7625C7.39548 13.7393 7.38139 13.7186 7.37531 13.6932L6.73585 11.0302H4.64305C4.37756 11.0302 4.16228 10.8152 4.16228 10.5494C4.16228 10.2842 4.37753 10.0687 4.64305 10.0687H7.11473C7.33705 10.0687 7.53025 10.2212 7.58211 10.4372L7.95536 11.9903L9.18242 8.86042C9.25448 8.67613 9.43219 8.55502 9.63008 8.55502C9.82773 8.55502 10.0054 8.67616 10.0775 8.86042L11.3386 12.077L12.798 6.93124C12.8558 6.7277 13.0398 6.5857 13.2514 6.5817C13.4626 6.57513 13.6523 6.71244 13.7178 6.91364L15.4174 12.1444L16.712 8.78624C16.7874 8.5907 16.9813 8.46653 17.1905 8.47944C17.3999 8.49259 17.5766 8.63956 17.6271 8.8433L18.4093 11.9876L19.0304 10.3767C19.102 10.1912 19.2802 10.0687 19.479 10.0687H21.9507C22.2162 10.0687 22.4315 10.2842 22.4315 10.5495C22.4316 10.8152 22.2163 11.0302 21.9508 11.0302Z" fill="white"/>
</svg>
