<svg width="26" height="26" viewBox="0 0 26 26" fill="none" xmlns="http://www.w3.org/2000/svg">
<path d="M10.6098 21.3619C15.3282 21.3619 16.5565 18.7271 16.5565 18.7271V12.1399H4.73701V18.7271C4.73701 18.7271 5.70613 21.3619 10.6098 21.3619ZM15.2851 2.8254C15.2851 2.8254 15.1809 2.1398 14.2558 1.85C13.4126 1.58595 11.6779 1.17713 11.514 0.214191C11.514 0.214191 10.2952 1.50149 12.7051 3.57669C12.7051 3.57669 14.0485 4.6281 12.7051 6.87022C12.7051 6.87025 15.8429 5.06276 15.2851 2.8254ZM20.4966 18.7271C22.6773 18.6313 24.4363 16.0922 24.4363 16.0922C28.134 10.3896 23.123 6.87002 23.123 6.87002H12.7051H8.72424H0.796875V18.1267C0.796875 18.1267 0.796875 22.3279 4.73701 22.6793H2.11019C1.38566 22.6793 0.796875 23.2693 0.796875 23.9968C0.796875 24.7242 1.38566 25.3141 2.11019 25.3141H19.1831C19.9078 25.3141 20.4966 24.7242 20.4966 23.9968C20.4966 23.2692 19.9078 22.6793 19.1831 22.6793H16.5565C19.3602 22.2458 20.4966 18.7271 20.4966 18.7271ZM17.8698 18.7271C17.8698 18.7271 17.8732 20.6104 13.9299 22.6793H7.3634C7.3634 22.6793 3.4235 21.2287 3.4235 18.1267V9.50483H17.8698L17.8698 18.7271ZM20.4966 17.4096V9.50483H21.8097C25.91 11.8176 20.4966 17.4096 20.4966 17.4096ZM9.73726 4.23538C9.73726 4.23538 7.36423 2.15121 9.78052 1.33373L8.72421 1.60036C8.72421 1.60036 6.20598 2.22298 7.71096 4.23538C7.71096 4.23538 9.12278 5.88047 8.72421 6.87022C8.72424 6.87025 10.867 5.39277 9.73726 4.23538Z" fill="white"/>
</svg>
