<svg width="80" height="80" viewBox="0 0 80 80" fill="none" xmlns="http://www.w3.org/2000/svg">
<g id="&#229;&#177;&#133;&#229;&#174;&#182;&#230;&#138;&#164;&#231;&#144;&#134; 1" clip-path="url(#clip0_146_4)">
<path id="Vector" d="M76.3894 18.0011C73.4793 17.7345 71.5392 21.6011 71.418 22.1344L71.1755 22.6677L67.5379 42.2674L63.5365 45.334L64.8703 42.2674C65.7191 40.2674 65.3553 37.8674 64.0216 36.2675C63.1728 35.4675 62.2028 34.9342 61.1115 34.9342C60.0202 34.9342 58.9289 35.4675 58.3227 36.4008L41.8323 56.9338C41.3473 57.6004 40.8622 58.2671 40.6197 59.067C40.256 58.2671 39.8922 57.6004 39.4072 56.9338L22.9168 36.6675C22.1893 35.7341 21.2193 35.2008 20.128 35.2008C19.0367 35.2008 17.9454 35.6008 17.2179 36.5341C15.7629 38.1341 15.3991 40.5341 16.3691 42.534L17.7029 45.6006L13.8228 42.6673L10.1852 23.0677C10.1852 22.9344 10.064 22.6677 9.94274 22.5344C9.70023 21.8677 7.88144 18.0011 4.85011 18.1345C2.42505 18.4011 1.21252 20.8011 1.21252 23.0677V23.4677L5.09262 48.4006C5.33513 49.8672 6.06264 51.3339 7.03267 52.2672L24.8569 69.3335C25.0994 69.6002 25.3419 70.0002 25.3419 70.4002V75.0668C25.3419 77.7334 27.1607 79.8667 29.5857 79.8667H37.8309C38.8009 79.8667 39.771 79.4667 40.4985 78.8C41.226 79.4667 42.196 79.8667 43.1661 79.8667H51.5325C53.9576 79.8667 55.7764 77.7334 55.7764 75.0668V70.4002C55.7764 70.0002 56.0189 69.6002 56.2614 69.3335L74.0856 52.2672C75.1768 51.2005 75.7831 49.8672 76.0256 48.4006L80.027 23.601V23.0677C79.9057 20.8011 78.6932 18.2678 76.3894 18.0011ZM20.0067 39.0674L19.643 39.2007C19.643 39.0674 19.7642 38.9341 20.0067 39.0674ZM58.8077 8.26798C57.4739 4.53471 54.6851 1.73476 51.1687 0.668116C47.8949 -0.531862 44.1361 0.0014618 41.226 2.00143C40.741 2.26809 40.256 2.80141 39.771 3.06807C39.286 2.66808 38.8009 2.26809 38.3159 2.00143C35.4059 -0.131869 31.7683 -0.531862 28.3732 0.668116C24.8569 1.86809 22.068 4.66804 20.7343 8.26798C19.158 12.8012 19.5217 18.0011 21.7043 22.2677C25.0994 29.6009 37.4672 41.2007 38.0734 41.6007C39.0434 42.4007 40.4985 42.4007 41.4685 41.6007C42.0748 41.0674 54.4426 29.6009 57.8377 22.2677C60.0202 18.0011 60.384 12.9346 58.8077 8.26798ZM53.1088 16.2678C52.1388 16.2678 51.4113 15.4678 51.4113 14.4012C51.4113 9.20129 48.0162 8.93463 47.2886 8.93463C46.3186 8.8013 45.7124 8.00131 45.7124 6.93467C45.8336 6.00135 46.4399 5.3347 47.2886 5.20137C49.835 5.20137 54.6851 7.068 54.6851 14.4012C54.6851 15.4678 53.9576 16.2678 53.1088 16.2678Z" fill="white"/>
</g>
<defs>
<clipPath id="clip0_146_4">
<rect width="80" height="80" fill="white"/>
</clipPath>
</defs>
</svg>
